HIERARCHY
ROOT Hips
{
  OFFSET 5.84602e-005 68.8428 3.50346
  CHANNELS 6 Xposition Yposition Zposition Zrotation Xrotation Yrotation
  JOINT Spine
  {
    OFFSET 0 8.597 -4.6522
    CHANNELS 3 Zrotation Xrotation Yrotation
    JOINT Spine1
    {
      OFFSET 0 7.8454 0.4098
      CHANNELS 3 Zrotation Xrotation Yrotation
      JOINT Spine2
      {
        OFFSET 0 9.7078 -2.1609
        CHANNELS 3 Zrotation Xrotation Yrotation
        JOINT Neck
        {
          OFFSET 0 21.8761 -0.4549
          CHANNELS 3 Zrotation Xrotation Yrotation
          JOINT Head
          {
            OFFSET 0 12.3537 3.3602
            CHANNELS 3 Zrotation Xrotation Yrotation
            End Site
            {
              OFFSET 0.0001 18.9506 0.5657
            }
          }
        }
        JOINT LeftShoulder
        {
          OFFSET 2.2086 21.1115 7.2329
          CHANNELS 3 Zrotation Xrotation Yrotation
          JOINT LeftArm
          {
            OFFSET 13.1193 3.0282 -4.8998
            CHANNELS 3 Zrotation Xrotation Yrotation
            JOINT LeftForeArm
            {
              OFFSET 27.4081 -0.0973053 -0.2375
              CHANNELS 3 Zrotation Xrotation Yrotation
              JOINT LeftHand
              {
                OFFSET 22.8641 0.0662994 -0.1369
                CHANNELS 3 Zrotation Xrotation Yrotation
                JOINT LeftHandIndex1
                {
                  OFFSET 8.8614 0.775009 2.4612
                  CHANNELS 3 Zrotation Xrotation Yrotation
                  JOINT LeftHandIndex2
                  {
                    OFFSET 3.3146 -0.808304 0.5841
                    CHANNELS 3 Zrotation Xrotation Yrotation
                    JOINT LeftHandIndex3
                    {
                      OFFSET 2.2628 -0.552002 0.3989
                      CHANNELS 3 Zrotation Xrotation Yrotation
                      End Site
                      {
                        OFFSET 1.6102 -0.4807 0.2612
                      }
                    }
                  }
                }
                JOINT LeftHandMiddle1
                {
                  OFFSET 8.9937 0.895004 0.2143
                  CHANNELS 3 Zrotation Xrotation Yrotation
                  JOINT LeftHandMiddle2
                  {
                    OFFSET 4.0984 0.0113983 -0.0242
                    CHANNELS 3 Zrotation Xrotation Yrotation
                    JOINT LeftHandMiddle3
                    {
                      OFFSET 2.2716 0.00689697 -0.0138001
                      CHANNELS 3 Zrotation Xrotation Yrotation
                      End Site
                      {
                        OFFSET 2.0404 -0.1441 0.0027
                      }
                    }
                  }
                }
                JOINT LeftHandRing1
                {
                  OFFSET 8.5234 0.597198 -2.0164
                  CHANNELS 3 Zrotation Xrotation Yrotation
                  JOINT LeftHandRing2
                  {
                    OFFSET 3.7188 -0.188293 -0.2328
                    CHANNELS 3 Zrotation Xrotation Yrotation
                    JOINT LeftHandRing3
                    {
                      OFFSET 2.1191 -0.106598 -0.1332
                      CHANNELS 3 Zrotation Xrotation Yrotation
                      End Site
                      {
                        OFFSET 1.8737 -0.2304 -0.0886
                      }
                    }
                  }
                }
                JOINT LeftHandPinky1
                {
                  OFFSET 7.9094 -0.601089 -3.4825
                  CHANNELS 3 Zrotation Xrotation Yrotation
                  JOINT LeftHandPinky2
                  {
                    OFFSET 2.2874 -0.477005 -0.6314
                    CHANNELS 3 Zrotation Xrotation Yrotation
                    JOINT LeftHandPinky3
                    {
                      OFFSET 1.6774 -0.349396 -0.4633
                      CHANNELS 3 Zrotation Xrotation Yrotation
                      End Site
                      {
                        OFFSET 1.4888 -0.4091 -0.3416
                      }
                    }
                  }
                }
                JOINT LeftHandThumb1
                {
                  OFFSET 1.833 -1.3875 1.3896
                  CHANNELS 3 Zrotation Xrotation Yrotation
                  JOINT LeftHandThumb2
                  {
                    OFFSET 3.4129 -1.121 2.5732
                    CHANNELS 3 Zrotation Xrotation Yrotation
                    JOINT LeftHandThumb3
                    {
                      OFFSET 2.2474 -0.804199 1.6192
                      CHANNELS 3 Zrotation Xrotation Yrotation
                      End Site
                      {
                        OFFSET 1.6527 -0.5689 1.1317
                      }
                    }
                  }
                }
              }
            }
          }
        }
        JOINT RightShoulder
        {
          OFFSET -2.2086 21.1115 7.2329
          CHANNELS 3 Zrotation Xrotation Yrotation
          JOINT RightArm
          {
            OFFSET -13.1216 3.0287 -4.9007
            CHANNELS 3 Zrotation Xrotation Yrotation
            JOINT RightForeArm
            {
              OFFSET -27.4081 -0.0973053 -0.2375
              CHANNELS 3 Zrotation Xrotation Yrotation
              JOINT RightHand
              {
                OFFSET -22.8641 0.0664063 -0.1369
                CHANNELS 3 Zrotation Xrotation Yrotation
                JOINT RightHandIndex1
                {
                  OFFSET -8.8614 0.774994 2.4612
                  CHANNELS 3 Zrotation Xrotation Yrotation
                  JOINT RightHandIndex2
                  {
                    OFFSET -3.3146 -0.808304 0.5841
                    CHANNELS 3 Zrotation Xrotation Yrotation
                    JOINT RightHandIndex3
                    {
                      OFFSET -2.2628 -0.552002 0.3989
                      CHANNELS 3 Zrotation Xrotation Yrotation
                      End Site
                      {
                        OFFSET -1.6102 -0.4807 0.2612
                      }
                    }
                  }
                }
                JOINT RightHandMiddle1
                {
                  OFFSET -8.9937 0.894989 0.2143
                  CHANNELS 3 Zrotation Xrotation Yrotation
                  JOINT RightHandMiddle2
                  {
                    OFFSET -4.0984 0.0113983 -0.0242
                    CHANNELS 3 Zrotation Xrotation Yrotation
                    JOINT RightHandMiddle3
                    {
                      OFFSET -2.2716 0.00691223 -0.0138001
                      CHANNELS 3 Zrotation Xrotation Yrotation
                      End Site
                      {
                        OFFSET -2.0404 -0.1441 0.0027
                      }
                    }
                  }
                }
                JOINT RightHandRing1
                {
                  OFFSET -8.5234 0.597198 -2.0164
                  CHANNELS 3 Zrotation Xrotation Yrotation
                  JOINT RightHandRing2
                  {
                    OFFSET -3.7188 -0.188309 -0.2328
                    CHANNELS 3 Zrotation Xrotation Yrotation
                    JOINT RightHandRing3
                    {
                      OFFSET -2.1191 -0.106598 -0.1332
                      CHANNELS 3 Zrotation Xrotation Yrotation
                      End Site
                      {
                        OFFSET -1.8737 -0.2304 -0.0886
                      }
                    }
                  }
                }
                JOINT RightHandPinky1
                {
                  OFFSET -7.9094 -0.601105 -3.4825
                  CHANNELS 3 Zrotation Xrotation Yrotation
                  JOINT RightHandPinky2
                  {
                    OFFSET -2.2874 -0.477005 -0.6314
                    CHANNELS 3 Zrotation Xrotation Yrotation
                    JOINT RightHandPinky3
                    {
                      OFFSET -1.6774 -0.349396 -0.4633
                      CHANNELS 3 Zrotation Xrotation Yrotation
                      End Site
                      {
                        OFFSET -1.4888 -0.4091 -0.3416
                      }
                    }
                  }
                }
                JOINT RightHandThumb1
                {
                  OFFSET -1.833 -1.38751 1.3896
                  CHANNELS 3 Zrotation Xrotation Yrotation
                  JOINT RightHandThumb2
                  {
                    OFFSET -3.41299 -1.12099 2.5732
                    CHANNELS 3 Zrotation Xrotation Yrotation
                    JOINT RightHandThumb3
                    {
                      OFFSET -2.24741 -0.804108 1.6192
                      CHANNELS 3 Zrotation Xrotation Yrotation
                      End Site
                      {
                        OFFSET -1.6527 -0.5689 1.1317
                      }
                    }
                  }
                }
              }
            }
          }
        }
      }
    }
  }
  JOINT RightUpLeg
  {
    OFFSET -9.1966 3.8861 -0.7581
    CHANNELS 3 Zrotation Xrotation Yrotation
    JOINT RightLeg
    {
      OFFSET -0.7359 -41.0265 0
      CHANNELS 3 Zrotation Xrotation Yrotation
      JOINT RightFoot
      {
        OFFSET 0 -40.2855 0
        CHANNELS 3 Zrotation Xrotation Yrotation
        JOINT RightToeBase
        {
          OFFSET 0 -5.6122 11.7359
          CHANNELS 3 Zrotation Xrotation Yrotation
          End Site
          {
            OFFSET 0 0 7.8731
          }
        }
      }
    }
  }
  JOINT LeftUpLeg
  {
    OFFSET 9.1965 3.8864 -0.7581
    CHANNELS 3 Zrotation Xrotation Yrotation
    JOINT LeftLeg
    {
      OFFSET 0.7359 -41.0268 0
      CHANNELS 3 Zrotation Xrotation Yrotation
      JOINT LeftFoot
      {
        OFFSET 0 -40.2855 0
        CHANNELS 3 Zrotation Xrotation Yrotation
        JOINT LeftToeBase
        {
          OFFSET 0 -5.6122 11.7359
          CHANNELS 3 Zrotation Xrotation Yrotation
          End Site
          {
            OFFSET 0 0 7.8731
          }
        }
      }
    }
  }
}
MOTION
Frames:	4
Frame Time:	0.0333333
0.0371864 11.5589 -1.4378 -180 -22.9329 -180 0.887911 18.1346 -0.623941 2.17513 36.2547 -1.70191 2.17513 36.2547 -1.70191 1.93439e-007 36.2238 -2.01193e-006 -1.36595e-007 -5.24662 -5.32677e-007 -13.9839 -0.0748611 -11.4036 -50.547 3.48369 -5.56783 -51.0458 -24.1764 -71.6819 -35.5117 23.1865 11.3235 1.76556e-031 3.18055e-015 -3.18055e-015 -3.18055e-015 -3.18055e-015 -6.36111e-015 3.18055e-015 6.36111e-015 -1.59028e-014 1.76556e-031 3.18055e-015 -3.18055e-015 -0.0146097 -9.08369e-005 2.52013e-006 3.18055e-015 0 -3.18055e-015 1.76556e-031 3.18055e-015 -3.18055e-015 -0.0187432 -0.00117708 5.56043e-005 -4.77083e-015 -1.59028e-015 -0 1.76556e-031 3.18055e-015 -3.18055e-015 -0.0122764 -0.0032491 0.000671244 -7.95139e-015 -7.95139e-015 1.27222e-014 1.76556e-031 3.18055e-015 -3.18055e-015 -3.18055e-015 -3.18055e-015 -6.36111e-015 3.18055e-015 6.36111e-015 -1.59028e-014 14.2416 -0.0346657 11.6418 50.1237 3.4121 5.54607 50.3697 -26.0021 71.5353 36.7144 24.2576 -9.65335 -1.37663e-007 2.10409e-006 1.15888e-006 -5.29834e-007 1.49771e-006 6.64253e-007 -1.37663e-007 2.10409e-006 1.15888e-006 -1.37663e-007 2.10409e-006 1.15888e-006 0.0149902 -8.99743e-005 -7.77413e-007 -1.38617e-007 2.10425e-006 1.15861e-006 -1.37663e-007 2.10409e-006 1.15888e-006 0.0190129 -0.00118956 -5.59692e-005 -1.38863e-007 2.10436e-006 1.15854e-006 -1.37663e-007 2.10409e-006 1.15888e-006 0.0122411 -0.00323967 -0.000674118 -1.38422e-007 2.10442e-006 1.15871e-006 -1.37663e-007 2.10409e-006 1.15888e-006 -5.29834e-007 1.49771e-006 6.64253e-007 -1.37663e-007 2.10409e-006 1.15888e-006 -129.078 -56.0744 -151.324 76.0739 18.366 -96.8447 0.972944 7.4558 -5.9035 2.46903e-007 -5.48029e-007 6.01148e-007 132.172 -56.2978 152.727 -76.066 13.1502 60.6166 0.589098 7.0447 5.80032 -2.81654e-007 -9.1756e-007 7.31832e-007 
0.0373396 11.5589 -1.40361 -180 -22.9329 -180 0.887911 18.1346 -0.623941 2.17513 36.2547 -1.70191 2.17513 36.2547 -1.70191 1.55568e-006 35.9944 -1.53957e-006 4.95036e-007 -4.6181 6.1252e-007 -13.87 -0.111579 -11.3474 -50.6472 3.50286 -5.57517 -51.0458 -24.1763 -71.6819 -35.5117 23.1865 11.3235 -1.59028e-015 6.36111e-015 -1.27222e-014 -9.54166e-015 -1.59028e-015 3.18055e-015 -1.27222e-014 0 -0 -1.59028e-015 6.36111e-015 -1.27222e-014 -0.0145826 -8.69693e-005 1.61146e-006 -1.59028e-015 -2.38542e-014 -3.18055e-015 -1.59028e-015 6.36111e-015 -1.27222e-014 -0.0187563 -0.00117588 5.54606e-005 4.77083e-015 -9.54166e-015 3.18055e-015 -1.59028e-015 6.36111e-015 -1.27222e-014 -0.0122746 -0.00324944 0.000667846 9.54166e-015 4.77083e-015 3.18055e-015 -1.59028e-015 6.36111e-015 -1.27222e-014 -9.54166e-015 -1.59028e-015 3.18055e-015 -1.27222e-014 0 -0 14.1163 -0.073563 11.5752 50.2424 3.43429 5.55436 50.3995 -25.9222 71.5421 36.662 24.2099 -9.72652 -1.59028e-015 -9.54166e-015 -6.36111e-015 -5.34508e-007 7.45363e-007 -1.42609e-006 6.36111e-015 -6.36111e-015 -0 -1.59028e-015 -9.54166e-015 -6.36111e-015 0.0149826 -9.38616e-005 -1.18142e-006 -4.00827e-007 3.22492e-006 2.5308e-006 -1.59028e-015 -9.54166e-015 -6.36111e-015 0.0189973 -0.00120039 -6.20653e-005 -1.74931e-014 0 3.18055e-015 -1.59028e-015 -9.54166e-015 -6.36111e-015 0.0122596 -0.00324163 -0.000673839 -6.36111e-015 -1.27222e-014 -0 -1.59028e-015 -9.54166e-015 -6.36111e-015 -5.34508e-007 7.45363e-007 -1.42609e-006 6.36111e-015 -6.36111e-015 -0 -129.078 -56.0744 -151.324 76.0734 18.366 -96.8446 0.972845 7.4562 -5.9035 -4.93806e-007 1.09606e-006 -1.2023e-006 132.17 -56.2989 152.727 -75.9892 13.2048 60.602 0.590425 7.04559 5.80023 3.18055e-015 -9.54166e-015 -3.18055e-015 
0.0374893 11.559 -1.36944 -180 -22.9329 -180 0.887911 18.1346 -0.623941 2.17513 36.2547 -1.70191 2.17513 36.2547 -1.70191 -4.427e-007 35.7651 7.96529e-007 8.63176e-008 -3.98966 1.92374e-007 -13.7561 -0.148174 -11.2911 -50.7475 3.52203 -5.58247 -51.0458 -24.1764 -71.6819 -35.5117 23.1865 11.3235 5.03578e-007 7.52075e-007 1.41321e-006 -9.9418e-007 -5.86154e-008 -3.0318e-006 -2.5177e-006 1.32085e-006 3.57773e-007 5.03578e-007 7.52075e-007 1.41321e-006 -0.0146371 -9.15583e-005 -2.88478e-006 5.03619e-007 7.51895e-007 1.4133e-006 5.03578e-007 7.52075e-007 1.41321e-006 -0.0187601 -0.00117859 5.82358e-005 5.03644e-007 7.51847e-007 1.41333e-006 5.03578e-007 7.52075e-007 1.41321e-006 -0.0122562 -0.00324554 0.000674106 5.03656e-007 7.5193e-007 1.41327e-006 5.03578e-007 7.52075e-007 1.41321e-006 -9.9418e-007 -5.86154e-008 -3.0318e-006 -2.5177e-006 1.32085e-006 3.57773e-007 13.991 -0.112297 11.5084 50.3611 3.45647 5.56262 50.4293 -25.8423 71.5489 36.6095 24.1623 -9.79968 -9.40255e-007 3.59662e-006 6.47443e-008 5.32881e-007 -1.48273e-006 -6.45563e-007 -1.34365e-006 6.81677e-006 2.59082e-006 -9.40255e-007 3.59662e-006 6.47443e-008 0.0150008 -9.78613e-005 -1.9024e-007 -1.34228e-006 6.8171e-006 2.58993e-006 -9.40255e-007 3.59662e-006 6.47443e-008 0.0189794 -0.00119375 -5.81447e-005 -9.40112e-007 3.59662e-006 6.4158e-008 -9.40255e-007 3.59662e-006 6.47443e-008 0.0122533 -0.00325053 -0.000676978 -1.3425e-006 6.81674e-006 2.59006e-006 -9.40255e-007 3.59662e-006 6.47443e-008 5.32881e-007 -1.48273e-006 -6.45563e-007 -1.34365e-006 6.81677e-006 2.59082e-006 -129.078 -56.0744 -151.324 76.073 18.3659 -96.8445 0.972723 7.45656 -5.9035 1.37332e-006 3.1651e-006 6.18768e-006 132.167 -56.2999 152.727 -75.9124 13.2594 60.5874 0.591738 7.0465 5.80016 7.95719e-007 -1.60267e-006 1.82414e-006 
0.0376427 11.559 -1.33525 -180 -22.9329 -180 0.887911 18.1346 -0.623941 2.17513 36.2547 -1.70191 2.17513 36.2547 -1.70191 -2.13564e-006 35.5359 -8.21343e-007 -4.21013e-007 -3.36136 -4.10931e-007 -13.6421 -0.184654 -11.2348 -50.8478 3.54121 -5.58973 -51.0457 -24.1763 -71.6819 -35.5117 23.1865 11.3235 -1.76556e-031 -3.18055e-015 -3.18055e-015 -1.84343e-007 1.38278e-006 -2.26854e-006 -6.36111e-015 -1.59028e-015 3.18055e-015 -1.76556e-031 -3.18055e-015 -3.18055e-015 -0.0146191 -8.71936e-005 5.14198e-007 -3.01884e-006 5.68995e-007 -1.05561e-006 -1.76556e-031 -3.18055e-015 -3.18055e-015 -0.0187581 -0.00117397 6.32908e-005 3.18055e-015 -1.59028e-015 3.18055e-015 -1.76556e-031 -3.18055e-015 -3.18055e-015 -0.0122441 -0.00323975 0.000678691 -3.18055e-015 1.27222e-014 -9.54166e-015 -1.76556e-031 -3.18055e-015 -3.18055e-015 -1.84343e-007 1.38278e-006 -2.26854e-006 -6.36111e-015 -1.59028e-015 3.18055e-015 13.8656 -0.150888 11.4415 50.4798 3.47868 5.57081 50.459 -25.7624 71.5555 36.5571 24.1147 -9.87288 4.77083e-015 6.36111e-015 -3.18055e-015 -4.0579e-007 2.85062e-006 1.49016e-006 6.36111e-015 -6.36111e-015 -9.54166e-015 4.77083e-015 6.36111e-015 -3.18055e-015 0.0149847 -9.41368e-005 2.8981e-006 3.18055e-015 0 -0 4.77083e-015 6.36111e-015 -3.18055e-015 0.01897 -0.00118629 -5.84305e-005 -9.54166e-015 0 -3.18055e-015 4.77083e-015 6.36111e-015 -3.18055e-015 0.0122489 -0.00323854 -0.000673751 1.59028e-015 -6.36111e-015 -3.18055e-015 4.77083e-015 6.36111e-015 -3.18055e-015 -4.0579e-007 2.85062e-006 1.49016e-006 6.36111e-015 -6.36111e-015 -9.54166e-015 -129.079 -56.0744 -151.324 76.0726 18.3659 -96.8444 0.972614 7.45692 -5.9035 -2.46903e-007 5.48029e-007 -6.01148e-007 132.164 -56.301 152.727 -75.8355 13.314 60.5727 0.593051 7.04744 5.80006 -1.76556e-031 3.18055e-015 3.18055e-015 
